<svg id="Capa_1" enable-background="new 0 0 512 512" height="512" viewBox="0 0 512 512" width="512"
     xmlns="http://www.w3.org/2000/svg">
    <g>
        <path d="m512 256c0 141.38-114.62 256-256 256-49.82 0-96.31-14.23-135.64-38.85-28.36-17.76-33.72-56.67-53.18-83.79-10.51-14.65-38.8-14.69-46.07-31.42-13.58-31.24-21.11-65.71-21.11-101.94 0-141.38 114.62-256 256-256s256 114.62 256 256z"
              fill="#687780"/>
        <g>
            <path d="m185.538 383.427c7.68-7.68 7.68-20.131 0-27.811l-53.987-53.987c-7.68-7.68-20.131-7.68-27.811 0-5.313 5.313-6.948 12.909-4.91 19.63-6.721-2.038-14.317-.403-19.63 4.91-5.313 5.313-6.948 12.909-4.91 19.63-6.721-2.038-14.317-.404-19.63 4.91-7.68 7.68-7.68 20.131 0 27.811l53.987 53.987c7.68 7.68 20.131 7.68 27.811 0 5.313-5.313 6.948-12.909 4.91-19.63 6.721 2.038 14.317.404 19.63-4.91 5.313-5.313 6.948-12.909 4.91-19.63 6.721 2.038 14.317.404 19.63-4.91z"
                  fill="#95d6a4"/>
            <path d="m78.893 394.604c.004 5.03 1.923 10.065 5.764 13.906l-29.993-29.993c-3.841-3.841-5.76-8.876-5.764-13.906.004-5.03 1.923-10.065 5.764-13.906 5.313-5.313 12.91-6.949 19.629-4.911-1.021-3.358-1.123-6.937-.303-10.339.82-3.403 2.554-6.629 5.211-9.286 5.313-5.313 12.91-6.949 19.629-4.911-1.017-3.362-1.119-6.941-.299-10.343.82-3.403 2.554-6.629 5.211-9.286 7.683-7.683 20.129-7.683 27.812 0l29.993 29.993c-7.683-7.683-20.129-7.683-27.812 0-2.657 2.657-4.391 5.883-5.211 9.286s-.717 6.982.299 10.343c-6.719-2.037-14.316-.402-19.629 4.911-2.657 2.657-4.391 5.883-5.211 9.286s-.717 6.982.303 10.339c-6.719-2.038-14.316-.402-19.629 4.911-3.841 3.842-5.76 8.876-5.764 13.906z"
                  fill="#78c2a4"/>
            <path d="m481.045 80.925-4.751-42.204c-1.648-14.642-13.205-26.199-27.847-27.847l-42.204-4.751c-9.549-1.075-19.067 2.256-25.862 9.051l-249.102 249.101 91.614 91.614 249.102-249.102c6.794-6.794 10.125-16.313 9.05-25.862z"
                  fill="#f9f6f9"/>
            <path d="m426.033 61.135c-4.668-4.668-12.237-4.668-16.905 0l-234.496 234.496 16.905 16.905 234.496-234.496c4.668-4.669 4.668-12.237 0-16.905z"
                  fill="#dddaec"/>
            <path d="m473.894 29.694c-2.816-1.218-5.85-2.046-9.027-2.402l-42.202-4.747c-9.548-1.078-19.072 2.255-25.865 9.048l-249.103 249.102-16.419-16.419 249.103-249.103c6.793-6.793 16.317-10.126 25.861-9.052l42.206 4.752c11.466 1.291 21.039 8.658 25.446 18.821z"
                  fill="#dddaec"/>
            <path d="m259.702 342.528c-7.975-7.975-19.036-10.979-29.338-9.017 1.962-10.302-1.042-21.363-9.016-29.338-7.975-7.975-19.036-10.979-29.338-9.016 1.962-10.302-1.042-21.363-9.017-29.338s-19.036-10.979-29.338-9.016c1.962-10.302-1.042-21.363-9.017-29.338-12.8-12.8-33.552-12.8-46.352 0s-12.8 33.552 0 46.352c7.975 7.975 107.088 107.088 115.063 115.063 12.8 12.8 33.552 12.8 46.352 0 12.801-12.799 12.801-33.552.001-46.352z"
                  fill="#ffd064"/>
            <path d="m156.633 332.171-58.35-58.35c-12.799-12.799-12.799-33.552.004-46.355 12.799-12.799 33.552-12.799 46.351 0 7.974 7.974 10.975 19.035 9.015 29.341 10.302-1.964 21.363 1.037 29.337 9.011 3.575 3.575 6.154 7.777 7.724 12.258-11.52-4.059-24.864-1.48-34.08 7.736-12.804 12.803-12.804 33.556-.001 46.359z"
                  fill="#ffc250"/>
            <path d="m126.94 468.8c-1.94 1.94-4.19 3.39-6.58 4.35-43.68-27.35-78.52-67.5-99.25-115.21 3.35-2.32 7.26-3.48 11.17-3.48 5.03 0 10.06 1.92 13.9 5.76l80.76 80.77c7.68 7.68 7.68 20.13 0 27.81z"
                  fill="#ffd064"/>
            <path d="m81.08 395.12c-3.84-3.84-8.87-5.76-13.9-5.76s-10.07 1.92-13.91 5.76c-2.84 2.84-4.63 6.33-5.37 10-10.51-14.65-19.52-30.45-26.79-47.18 3.35-2.32 7.26-3.48 11.17-3.48 5.03.01 10.06 1.93 13.9 5.76z"
                  fill="#ffc250"/>
            <g fill="#dd636e">
                <circle cx="238.128" cy="366.128" r="9.311"/>
                <circle cx="199.078" cy="327.077" r="9.311"/>
                <circle cx="161.288" cy="289.287" r="9.311"/>
                <circle cx="120.633" cy="248.633" r="9.311"/>
            </g>
        </g>
        <path d="m396.653 131.151v87.047c0 8.944 7.319 16.54 16.262 16.372 8.672-.162 15.652-7.243 15.652-15.954v-46.636c2.813 4.54 7.826 7.575 13.56 7.575 8.813 0 15.957-7.144 15.957-15.957v-15.713c2.808 4.532 7.807 7.563 13.527 7.575 8.797.017 15.989-7.588 15.989-16.385v-70.169c0-14.865-17.487-22.831-28.703-13.075l-46.269 40.248c-10.148 8.829-15.975 21.62-15.975 35.072z"
              fill="#dd636e"/>
        <path d="m472.863 55.831-46.27 40.25c-10.15 8.83-15.97 21.62-15.97 35.07v87.05c0 6.36 3.7 12.04 9.06 14.72-2.05 1.02-4.35 1.61-6.77 1.65-8.94.17-16.26-7.43-16.26-16.37v-87.05c0-13.45 5.83-26.24 15.97-35.07l46.27-40.25c5.53-4.81 12.59-5.31 18.32-2.8-1.51.68-2.98 1.61-4.35 2.8z"
              fill="#da4a54"/>
        <path d="m330.527 196.051-22.333 19.427c-10.149 8.828-15.976 21.62-15.976 35.071v52.746c0 8.592 6.603 15.986 15.186 16.39 9.164.431 16.728-6.87 16.728-15.939v-46.636c2.813 4.54 7.826 7.575 13.56 7.575 8.813 0 15.957-7.144 15.957-15.957l.574-41.774c.094-12.323-14.398-18.991-23.696-10.903z"
              fill="#dd636e"/>
        <path d="m343.829 196.049-22.33 19.43c-10.15 8.83-15.98 21.62-15.98 35.07v52.75c0 6.51 3.79 12.33 9.36 14.94-2.25 1.04-4.8 1.58-7.48 1.45-8.58-.41-15.18-7.8-15.18-16.39v-52.75c0-13.45 5.82-26.24 15.97-35.07l22.34-19.43c4.86-4.23 11.14-4.42 16.01-1.88-.94.5-1.85 1.13-2.71 1.88z"
              fill="#da4a54"/>
        <g>
            <path d="m431.853 272.057-15.483-15.483-15.483 15.483c-8.551 8.551-8.551 22.415 0 30.966 8.551 8.551 22.415 8.551 30.966 0 8.551-8.551 8.551-22.415 0-30.966z"
                  fill="#dd636e"/>
            <path d="m416.377 309.433c-5.61 0-11.22-2.13-15.49-6.41-8.55-8.56-8.55-22.42 0-30.97l15.48-15.48-5.5 15.48c-3.04 8.55-3.04 22.41 0 30.97 1.52 4.28 3.51 6.41 5.51 6.41z"
                  fill="#da4a54"/>
        </g>
        <g>
            <path d="m335.416 418.375-15.483-15.483-15.483 15.483c-8.551 8.551-8.551 22.415 0 30.966 8.551 8.551 22.415 8.551 30.966 0 8.551-8.551 8.551-22.415 0-30.966z"
                  fill="#dd636e"/>
            <path d="m319.94 455.751c-5.61 0-11.22-2.13-15.49-6.41-8.55-8.56-8.55-22.42 0-30.97l15.48-15.48-5.5 15.48c-3.04 8.55-3.04 22.41 0 30.97 1.52 4.28 3.51 6.41 5.51 6.41z"
                  fill="#da4a54"/>
        </g>
    </g>
</svg>