<svg width="270" height="270" viewBox="0 0 270 270" fill="none" xmlns="http://www.w3.org/2000/svg">
    <path d="M270 135C270 209.558 209.558 270 135 270C60.4416 270 0 209.558 0 135C0 60.4416 60.4416 0 135 0C209.558 0 270 60.4416 270 135Z"
          fill="#F6F6F0"/>
    <path d="M77.8623 160.05C80.6146 155.664 85.4412 153 90.634 153H179.366C184.559 153 189.385 155.664 192.138 160.05L212.075 191.82C214.582 195.816 211.698 201 206.966 201H63.034C58.3023 201 55.4175 195.816 57.9254 191.82L77.8623 160.05Z"
          fill="#E6E8DE"/>
    <path fill-rule="evenodd" clip-rule="evenodd"
          d="M154.112 159.051C154.912 158.839 155.734 159.308 155.949 160.098L157.259 164.924H174C174.828 164.924 175.5 165.587 175.5 166.404C175.5 167.222 174.828 167.885 174 167.885H158.062L162.082 182.693H184.5C185.328 182.693 186 183.356 186 184.174C186 184.992 185.328 185.655 184.5 185.655H162.885L164.102 190.136C164.316 190.926 163.841 191.738 163.041 191.949C162.241 192.161 161.418 191.692 161.204 190.902L159.78 185.655H109.373L107.949 190.902C107.734 191.692 106.912 192.161 106.112 191.949C105.311 191.738 104.837 190.926 105.051 190.136L106.267 185.655H85.5C84.6716 185.655 84 184.992 84 184.174C84 183.356 84.6716 182.693 85.5 182.693H107.071L111.09 167.885H96C95.1716 167.885 94.5 167.222 94.5 166.404C94.5 165.587 95.1716 164.924 96 164.924H111.894L113.204 160.098C113.418 159.308 114.241 158.839 115.041 159.051C115.841 159.262 116.316 160.074 116.102 160.864L115 164.924H154.153L153.051 160.864C152.837 160.074 153.311 159.262 154.112 159.051ZM114.196 167.885L110.177 182.693H158.976L154.957 167.885H114.196Z"
          fill="#CACDBF"/>
    <path d="M135 51C108.563 51 87 72.5575 87 98.9884C87 109.472 90.3229 119.438 96.6003 127.781L132.046 175.524C132.562 176.262 133.5 177 135 177C136.5 177 137.5 176.208 137.954 175.523C138.101 175.302 173.769 127.264 174.065 126.821C174.139 126.821 174.139 126.821 174.139 126.748C179.899 118.626 183 109.029 183 98.9884C183 72.5578 161.437 51 135 51ZM135 124.828C120.748 124.828 109.154 113.237 109.154 98.9884C109.154 84.7396 120.748 73.1485 135 73.1485C149.252 73.1485 160.846 84.7396 160.846 98.9884C160.846 113.237 149.252 124.828 135 124.828Z"
          fill="#D72C16"/>
</svg>
