<svg width="59" height="52" viewBox="0 0 59 52" fill="none" xmlns="http://www.w3.org/2000/svg">
    <g opacity="0.8">
        <path fill-rule="evenodd" clip-rule="evenodd"
              d="M52.5928 1.17647C52.5928 0.526724 53.1195 0 53.7692 0C54.419 0 54.9457 0.526724 54.9457 1.17647V3.82349H57.5928C58.2426 3.82349 58.7693 4.35021 58.7693 4.99996C58.7693 5.6497 58.2426 6.17643 57.5928 6.17643H54.9457V8.82353C54.9457 9.47328 54.419 10 53.7692 10C53.1195 10 52.5928 9.47328 52.5928 8.82353V6.17643H49.9458C49.296 6.17643 48.7693 5.6497 48.7693 4.99996C48.7693 4.35021 49.296 3.82349 49.9458 3.82349H52.5928V1.17647Z"
              fill="#D72C16"/>
        <path d="M26.8845 23.5191C22.4317 23.5191 18.8191 27.1317 18.8191 31.5844C18.8191 36.0372 22.4317 39.6498 26.8845 39.6498C31.3373 39.6498 34.9499 36.0372 34.9499 31.5844C34.9499 27.1317 31.3373 23.5191 26.8845 23.5191Z"
              fill="#D72C16"/>
        <path fill-rule="evenodd" clip-rule="evenodd"
              d="M46.6 11.8692H40.3269L38.8987 8.06053C38.1986 6.21221 36.0142 4.69995 34.0538 4.69995H19.7154C17.755 4.69995 15.5707 6.21221 14.8706 8.06053L13.4423 11.8692H7.16923C3.22055 11.8692 0 15.0897 0 19.0384V44.1307C0 48.0794 3.22055 51.2999 7.16923 51.2999H46.6C50.5487 51.2999 53.7692 48.0794 53.7692 44.1307V19.0384C53.7692 15.0897 50.5487 11.8692 46.6 11.8692ZM26.8846 44.1305C19.9674 44.1305 14.3385 38.5015 14.3385 31.5843C14.3385 24.6671 19.9674 19.0382 26.8846 19.0382C33.8018 19.0382 39.4308 24.6671 39.4308 31.5843C39.4308 38.5015 33.8018 44.1305 26.8846 44.1305Z"
              fill="#D72C16"/>
    </g>
</svg>
